<svg width="146" height="56" viewBox="0 0 146 56" fill="none" xmlns="http://www.w3.org/2000/svg">
<path d="M38.089 12.552C36.9715 12.0035 31.307 12.63 27.221 16.548C20.786 22.975 20.9405 31.439 20.9405 31.439C20.9405 31.439 20.7285 32.3105 19.8215 31.047C17.8375 28.5195 18.877 22.7025 18.993 21.8915C19.157 20.751 18.4295 20.716 18.126 21.094C10.9585 31.0465 17.432 39.197 21.6715 41.784C26.6335 44.8115 36.424 44.8105 40.3245 36.22C45.18 25.5215 39.4885 13.2385 38.089 12.552Z" fill="#82B23F"/>
<path d="M37.9775 21.9915C38.475 18.655 38.478 15.441 38.069 12.545C36.914 12.011 31.2865 12.649 27.221 16.548C20.786 22.975 20.9405 31.439 20.9405 31.439C20.9405 31.439 20.7285 32.3105 19.8215 31.047C17.8375 28.5195 18.877 22.7025 18.993 21.8915C19.157 20.751 18.4295 20.716 18.126 21.094C13.794 27.109 14.4475 32.463 16.576 36.3315C18.7065 38.619 21.131 40.1225 23.3765 40.4575C29.7765 41.4125 36.3125 33.145 37.9775 21.9915Z" fill="#B3E856"/>
<path d="M37.9775 21.9915C38.475 18.655 38.478 15.441 38.069 12.545C36.914 12.011 32.4315 13.866 28.3655 17.766C21.9305 24.1925 20.9405 31.439 20.9405 31.439C20.9405 31.439 20.7285 32.3105 19.8215 31.047C17.8375 28.5195 18.5195 24.153 18.636 23.3425C18.8005 22.2015 18.0725 22.167 17.769 22.545C13.4375 28.56 14.448 32.4635 16.577 36.3315C18.7075 38.619 21.132 40.1225 23.3775 40.4575C29.7765 41.4125 36.3125 33.145 37.9775 21.9915Z" fill="#98D13F"/>
<path d="M57.9453 20.7812H62.9746C64.0553 20.7812 64.9766 20.944 65.7383 21.2695C66.5 21.5951 67.0827 22.0768 67.4863 22.7148C67.8965 23.3464 68.1016 24.1276 68.1016 25.0586C68.1016 25.7682 67.9714 26.3932 67.7109 26.9336C67.4505 27.474 67.0827 27.9297 66.6074 28.3008C66.1322 28.6654 65.5658 28.9486 64.9082 29.1504L64.166 29.5117H59.6445L59.625 27.5684H63.0137C63.5996 27.5684 64.0879 27.4642 64.4785 27.2559C64.8691 27.0475 65.1621 26.7643 65.3574 26.4062C65.5592 26.0417 65.6602 25.6315 65.6602 25.1758C65.6602 24.681 65.5625 24.2513 65.3672 23.8867C65.1784 23.5156 64.8854 23.2324 64.4883 23.0371C64.0911 22.8353 63.5866 22.7344 62.9746 22.7344H60.3965V35H57.9453V20.7812ZM66.0605 35L62.7207 28.6133L65.2891 28.6035L68.6777 34.873V35H66.0605ZM75.1168 35.1953C74.3355 35.1953 73.6292 35.0684 72.9977 34.8145C72.3727 34.554 71.8388 34.1927 71.3961 33.7305C70.9599 33.2682 70.6246 32.7246 70.3902 32.0996C70.1559 31.4746 70.0387 30.8008 70.0387 30.0781V29.6875C70.0387 28.8607 70.1591 28.112 70.4 27.4414C70.6409 26.7708 70.9762 26.1979 71.4059 25.7227C71.8355 25.2409 72.3434 24.873 72.9293 24.6191C73.5152 24.3652 74.15 24.2383 74.8336 24.2383C75.5888 24.2383 76.2496 24.3652 76.816 24.6191C77.3824 24.873 77.8512 25.2311 78.2223 25.6934C78.5999 26.1491 78.8798 26.6927 79.0621 27.3242C79.2509 27.9557 79.3453 28.6523 79.3453 29.4141V30.4199H71.1812V28.7305H77.0211V28.5449C77.0081 28.1217 76.9234 27.7246 76.7672 27.3535C76.6174 26.9824 76.3863 26.6829 76.0738 26.4551C75.7613 26.2272 75.3447 26.1133 74.8238 26.1133C74.4332 26.1133 74.0849 26.1979 73.7789 26.3672C73.4794 26.5299 73.2288 26.7676 73.027 27.0801C72.8251 27.3926 72.6689 27.7702 72.5582 28.2129C72.454 28.6491 72.402 29.1406 72.402 29.6875V30.0781C72.402 30.5404 72.4638 30.9701 72.5875 31.3672C72.7177 31.7578 72.9065 32.0996 73.1539 32.3926C73.4013 32.6855 73.7008 32.9167 74.0523 33.0859C74.4039 33.2487 74.8043 33.3301 75.2535 33.3301C75.8199 33.3301 76.3245 33.2161 76.7672 32.9883C77.2099 32.7604 77.594 32.4382 77.9195 32.0215L79.1598 33.2227C78.9319 33.5547 78.6357 33.8737 78.2711 34.1797C77.9065 34.4792 77.4605 34.7233 76.9332 34.9121C76.4124 35.1009 75.8069 35.1953 75.1168 35.1953ZM85.6477 33.3203C86.0318 33.3203 86.3768 33.2454 86.6828 33.0957C86.9953 32.9395 87.246 32.7246 87.4348 32.4512C87.6301 32.1777 87.7375 31.862 87.757 31.5039H89.9738C89.9608 32.1875 89.759 32.8092 89.3684 33.3691C88.9777 33.929 88.4602 34.375 87.8156 34.707C87.1711 35.0326 86.4582 35.1953 85.677 35.1953C84.8697 35.1953 84.1665 35.0586 83.5676 34.7852C82.9686 34.5052 82.4706 34.1211 82.0734 33.6328C81.6763 33.1445 81.3768 32.5814 81.175 31.9434C80.9797 31.3053 80.882 30.6217 80.882 29.8926V29.5508C80.882 28.8216 80.9797 28.138 81.175 27.5C81.3768 26.8555 81.6763 26.2891 82.0734 25.8008C82.4706 25.3125 82.9686 24.9316 83.5676 24.6582C84.1665 24.3783 84.8664 24.2383 85.6672 24.2383C86.5135 24.2383 87.2557 24.4076 87.8937 24.7461C88.5318 25.0781 89.0331 25.5436 89.3977 26.1426C89.7687 26.735 89.9608 27.4251 89.9738 28.2129H87.757C87.7375 27.8223 87.6398 27.4707 87.4641 27.1582C87.2948 26.8392 87.0539 26.5853 86.7414 26.3965C86.4354 26.2077 86.0676 26.1133 85.6379 26.1133C85.1626 26.1133 84.7687 26.2109 84.4562 26.4062C84.1437 26.5951 83.8996 26.8555 83.7238 27.1875C83.548 27.513 83.4211 27.8809 83.343 28.291C83.2714 28.6947 83.2355 29.1146 83.2355 29.5508V29.8926C83.2355 30.3288 83.2714 30.752 83.343 31.1621C83.4146 31.5723 83.5383 31.9401 83.7141 32.2656C83.8964 32.5846 84.1437 32.8418 84.4562 33.0371C84.7687 33.2259 85.1659 33.3203 85.6477 33.3203ZM94.9969 33.8477L97.868 24.4336H100.388L96.1492 36.6113C96.0516 36.8717 95.9246 37.1549 95.7684 37.4609C95.6121 37.7669 95.407 38.0566 95.1531 38.3301C94.9057 38.61 94.5965 38.8346 94.2254 39.0039C93.8543 39.1797 93.4051 39.2676 92.8777 39.2676C92.6694 39.2676 92.4676 39.248 92.2723 39.209C92.0835 39.1764 91.9044 39.1406 91.7352 39.1016L91.7254 37.3047C91.7905 37.3112 91.8686 37.3177 91.9598 37.3242C92.0574 37.3307 92.1355 37.334 92.1941 37.334C92.5848 37.334 92.9103 37.2852 93.1707 37.1875C93.4311 37.0964 93.6427 36.9466 93.8055 36.7383C93.9747 36.5299 94.118 36.25 94.2352 35.8984L94.9969 33.8477ZM93.3758 24.4336L95.8855 32.3438L96.3055 34.8242L94.6746 35.2441L90.8367 24.4336H93.3758ZM106.065 33.3203C106.449 33.3203 106.794 33.2454 107.1 33.0957C107.412 32.9395 107.663 32.7246 107.852 32.4512C108.047 32.1777 108.155 31.862 108.174 31.5039H110.391C110.378 32.1875 110.176 32.8092 109.786 33.3691C109.395 33.929 108.877 34.375 108.233 34.707C107.588 35.0326 106.875 35.1953 106.094 35.1953C105.287 35.1953 104.584 35.0586 103.985 34.7852C103.386 34.5052 102.888 34.1211 102.491 33.6328C102.093 33.1445 101.794 32.5814 101.592 31.9434C101.397 31.3053 101.299 30.6217 101.299 29.8926V29.5508C101.299 28.8216 101.397 28.138 101.592 27.5C101.794 26.8555 102.093 26.2891 102.491 25.8008C102.888 25.3125 103.386 24.9316 103.985 24.6582C104.584 24.3783 105.284 24.2383 106.084 24.2383C106.931 24.2383 107.673 24.4076 108.311 24.7461C108.949 25.0781 109.45 25.5436 109.815 26.1426C110.186 26.735 110.378 27.4251 110.391 28.2129H108.174C108.155 27.8223 108.057 27.4707 107.881 27.1582C107.712 26.8392 107.471 26.5853 107.159 26.3965C106.853 26.2077 106.485 26.1133 106.055 26.1133C105.58 26.1133 105.186 26.2109 104.873 26.4062C104.561 26.5951 104.317 26.8555 104.141 27.1875C103.965 27.513 103.838 27.8809 103.76 28.291C103.689 28.6947 103.653 29.1146 103.653 29.5508V29.8926C103.653 30.3288 103.689 30.752 103.76 31.1621C103.832 31.5723 103.955 31.9401 104.131 32.2656C104.314 32.5846 104.561 32.8418 104.873 33.0371C105.186 33.2259 105.583 33.3203 106.065 33.3203ZM114.867 20V35H112.504V20H114.867ZM122.254 35.1953C121.472 35.1953 120.766 35.0684 120.134 34.8145C119.509 34.554 118.976 34.1927 118.533 33.7305C118.097 33.2682 117.761 32.7246 117.527 32.0996C117.293 31.4746 117.175 30.8008 117.175 30.0781V29.6875C117.175 28.8607 117.296 28.112 117.537 27.4414C117.778 26.7708 118.113 26.1979 118.543 25.7227C118.972 25.2409 119.48 24.873 120.066 24.6191C120.652 24.3652 121.287 24.2383 121.97 24.2383C122.726 24.2383 123.386 24.3652 123.953 24.6191C124.519 24.873 124.988 25.2311 125.359 25.6934C125.737 26.1491 126.017 26.6927 126.199 27.3242C126.388 27.9557 126.482 28.6523 126.482 29.4141V30.4199H118.318V28.7305H124.158V28.5449C124.145 28.1217 124.06 27.7246 123.904 27.3535C123.754 26.9824 123.523 26.6829 123.211 26.4551C122.898 26.2272 122.481 26.1133 121.961 26.1133C121.57 26.1133 121.222 26.1979 120.916 26.3672C120.616 26.5299 120.365 26.7676 120.164 27.0801C119.962 27.3926 119.806 27.7702 119.695 28.2129C119.591 28.6491 119.539 29.1406 119.539 29.6875V30.0781C119.539 30.5404 119.601 30.9701 119.724 31.3672C119.854 31.7578 120.043 32.0996 120.291 32.3926C120.538 32.6855 120.838 32.9167 121.189 33.0859C121.541 33.2487 121.941 33.3301 122.39 33.3301C122.957 33.3301 123.461 33.2161 123.904 32.9883C124.347 32.7604 124.731 32.4382 125.056 32.0215L126.296 33.2227C126.069 33.5547 125.772 33.8737 125.408 34.1797C125.043 34.4792 124.597 34.7233 124.07 34.9121C123.549 35.1009 122.944 35.1953 122.254 35.1953ZM131.32 20.7812V35H128.868V20.7812H131.32ZM140.073 20.7812V35H137.641V20.7812H140.073ZM144.536 20.7812V22.7344H133.218V20.7812H144.536Z" fill="#028E3F"/>
</svg>
