<svg width="145" height="56" viewBox="0 0 145 56" fill="none" xmlns="http://www.w3.org/2000/svg">
<path d="M37.589 12.552C36.4715 12.0035 30.807 12.63 26.721 16.548C20.286 22.975 20.4405 31.439 20.4405 31.439C20.4405 31.439 20.2285 32.3105 19.3215 31.047C17.3375 28.5195 18.377 22.7025 18.493 21.8915C18.657 20.751 17.9295 20.716 17.626 21.094C10.4585 31.0465 16.932 39.197 21.1715 41.784C26.1335 44.8115 35.924 44.8105 39.8245 36.22C44.68 25.5215 38.9885 13.2385 37.589 12.552Z" fill="#82B23F"/>
<path d="M37.4775 21.9915C37.975 18.655 37.978 15.441 37.569 12.545C36.414 12.011 30.7865 12.649 26.721 16.548C20.286 22.975 20.4405 31.439 20.4405 31.439C20.4405 31.439 20.2285 32.3105 19.3215 31.047C17.3375 28.5195 18.377 22.7025 18.493 21.8915C18.657 20.751 17.9295 20.716 17.626 21.094C13.294 27.109 13.9475 32.463 16.076 36.3315C18.2065 38.619 20.631 40.1225 22.8765 40.4575C29.2765 41.4125 35.8125 33.145 37.4775 21.9915Z" fill="#B3E856"/>
<path d="M37.4775 21.9915C37.975 18.655 37.978 15.441 37.569 12.545C36.414 12.011 31.9315 13.866 27.8655 17.766C21.4305 24.1925 20.4405 31.439 20.4405 31.439C20.4405 31.439 20.2285 32.3105 19.3215 31.047C17.3375 28.5195 18.0195 24.153 18.136 23.3425C18.3005 22.2015 17.5725 22.167 17.269 22.545C12.9375 28.56 13.948 32.4635 16.077 36.3315C18.2075 38.619 20.632 40.1225 22.8775 40.4575C29.2765 41.4125 35.8125 33.145 37.4775 21.9915Z" fill="#98D13F"/>
<path d="M57.4453 20.7812H62.4746C63.5553 20.7812 64.4766 20.944 65.2383 21.2695C66 21.5951 66.5827 22.0768 66.9863 22.7148C67.3965 23.3464 67.6016 24.1276 67.6016 25.0586C67.6016 25.7682 67.4714 26.3932 67.2109 26.9336C66.9505 27.474 66.5827 27.9297 66.1074 28.3008C65.6322 28.6654 65.0658 28.9486 64.4082 29.1504L63.666 29.5117H59.1445L59.125 27.5684H62.5137C63.0996 27.5684 63.5879 27.4642 63.9785 27.2559C64.3691 27.0475 64.6621 26.7643 64.8574 26.4062C65.0592 26.0417 65.1602 25.6315 65.1602 25.1758C65.1602 24.681 65.0625 24.2513 64.8672 23.8867C64.6784 23.5156 64.3854 23.2324 63.9883 23.0371C63.5911 22.8353 63.0866 22.7344 62.4746 22.7344H59.8965V35H57.4453V20.7812ZM65.5605 35L62.2207 28.6133L64.7891 28.6035L68.1777 34.873V35H65.5605ZM74.6168 35.1953C73.8355 35.1953 73.1292 35.0684 72.4977 34.8145C71.8727 34.554 71.3388 34.1927 70.8961 33.7305C70.4599 33.2682 70.1246 32.7246 69.8902 32.0996C69.6559 31.4746 69.5387 30.8008 69.5387 30.0781V29.6875C69.5387 28.8607 69.6591 28.112 69.9 27.4414C70.1409 26.7708 70.4762 26.1979 70.9059 25.7227C71.3355 25.2409 71.8434 24.873 72.4293 24.6191C73.0152 24.3652 73.65 24.2383 74.3336 24.2383C75.0888 24.2383 75.7496 24.3652 76.316 24.6191C76.8824 24.873 77.3512 25.2311 77.7223 25.6934C78.0999 26.1491 78.3798 26.6927 78.5621 27.3242C78.7509 27.9557 78.8453 28.6523 78.8453 29.4141V30.4199H70.6812V28.7305H76.5211V28.5449C76.5081 28.1217 76.4234 27.7246 76.2672 27.3535C76.1174 26.9824 75.8863 26.6829 75.5738 26.4551C75.2613 26.2272 74.8447 26.1133 74.3238 26.1133C73.9332 26.1133 73.5849 26.1979 73.2789 26.3672C72.9794 26.5299 72.7288 26.7676 72.527 27.0801C72.3251 27.3926 72.1689 27.7702 72.0582 28.2129C71.954 28.6491 71.902 29.1406 71.902 29.6875V30.0781C71.902 30.5404 71.9638 30.9701 72.0875 31.3672C72.2177 31.7578 72.4065 32.0996 72.6539 32.3926C72.9013 32.6855 73.2008 32.9167 73.5523 33.0859C73.9039 33.2487 74.3043 33.3301 74.7535 33.3301C75.3199 33.3301 75.8245 33.2161 76.2672 32.9883C76.7099 32.7604 77.094 32.4382 77.4195 32.0215L78.6598 33.2227C78.4319 33.5547 78.1357 33.8737 77.7711 34.1797C77.4065 34.4792 76.9605 34.7233 76.4332 34.9121C75.9124 35.1009 75.3069 35.1953 74.6168 35.1953ZM85.1477 33.3203C85.5318 33.3203 85.8768 33.2454 86.1828 33.0957C86.4953 32.9395 86.746 32.7246 86.9348 32.4512C87.1301 32.1777 87.2375 31.862 87.257 31.5039H89.4738C89.4608 32.1875 89.259 32.8092 88.8684 33.3691C88.4777 33.929 87.9602 34.375 87.3156 34.707C86.6711 35.0326 85.9582 35.1953 85.177 35.1953C84.3697 35.1953 83.6665 35.0586 83.0676 34.7852C82.4686 34.5052 81.9706 34.1211 81.5734 33.6328C81.1763 33.1445 80.8768 32.5814 80.675 31.9434C80.4797 31.3053 80.382 30.6217 80.382 29.8926V29.5508C80.382 28.8216 80.4797 28.138 80.675 27.5C80.8768 26.8555 81.1763 26.2891 81.5734 25.8008C81.9706 25.3125 82.4686 24.9316 83.0676 24.6582C83.6665 24.3783 84.3664 24.2383 85.1672 24.2383C86.0135 24.2383 86.7557 24.4076 87.3937 24.7461C88.0318 25.0781 88.5331 25.5436 88.8977 26.1426C89.2687 26.735 89.4608 27.4251 89.4738 28.2129H87.257C87.2375 27.8223 87.1398 27.4707 86.9641 27.1582C86.7948 26.8392 86.5539 26.5853 86.2414 26.3965C85.9354 26.2077 85.5676 26.1133 85.1379 26.1133C84.6626 26.1133 84.2687 26.2109 83.9562 26.4062C83.6437 26.5951 83.3996 26.8555 83.2238 27.1875C83.048 27.513 82.9211 27.8809 82.843 28.291C82.7714 28.6947 82.7355 29.1146 82.7355 29.5508V29.8926C82.7355 30.3288 82.7714 30.752 82.843 31.1621C82.9146 31.5723 83.0383 31.9401 83.2141 32.2656C83.3964 32.5846 83.6437 32.8418 83.9562 33.0371C84.2687 33.2259 84.6659 33.3203 85.1477 33.3203ZM94.4969 33.8477L97.368 24.4336H99.8875L95.6492 36.6113C95.5516 36.8717 95.4246 37.1549 95.2684 37.4609C95.1121 37.7669 94.907 38.0566 94.6531 38.3301C94.4057 38.61 94.0965 38.8346 93.7254 39.0039C93.3543 39.1797 92.9051 39.2676 92.3777 39.2676C92.1694 39.2676 91.9676 39.248 91.7723 39.209C91.5835 39.1764 91.4044 39.1406 91.2352 39.1016L91.2254 37.3047C91.2905 37.3112 91.3686 37.3177 91.4598 37.3242C91.5574 37.3307 91.6355 37.334 91.6941 37.334C92.0848 37.334 92.4103 37.2852 92.6707 37.1875C92.9311 37.0964 93.1427 36.9466 93.3055 36.7383C93.4747 36.5299 93.618 36.25 93.7352 35.8984L94.4969 33.8477ZM92.8758 24.4336L95.3855 32.3438L95.8055 34.8242L94.1746 35.2441L90.3367 24.4336H92.8758ZM105.565 33.3203C105.949 33.3203 106.294 33.2454 106.6 33.0957C106.912 32.9395 107.163 32.7246 107.352 32.4512C107.547 32.1777 107.655 31.862 107.674 31.5039H109.891C109.878 32.1875 109.676 32.8092 109.286 33.3691C108.895 33.929 108.377 34.375 107.733 34.707C107.088 35.0326 106.375 35.1953 105.594 35.1953C104.787 35.1953 104.084 35.0586 103.485 34.7852C102.886 34.5052 102.388 34.1211 101.991 33.6328C101.593 33.1445 101.294 32.5814 101.092 31.9434C100.897 31.3053 100.799 30.6217 100.799 29.8926V29.5508C100.799 28.8216 100.897 28.138 101.092 27.5C101.294 26.8555 101.593 26.2891 101.991 25.8008C102.388 25.3125 102.886 24.9316 103.485 24.6582C104.084 24.3783 104.784 24.2383 105.584 24.2383C106.431 24.2383 107.173 24.4076 107.811 24.7461C108.449 25.0781 108.95 25.5436 109.315 26.1426C109.686 26.735 109.878 27.4251 109.891 28.2129H107.674C107.655 27.8223 107.557 27.4707 107.381 27.1582C107.212 26.8392 106.971 26.5853 106.659 26.3965C106.353 26.2077 105.985 26.1133 105.555 26.1133C105.08 26.1133 104.686 26.2109 104.373 26.4062C104.061 26.5951 103.817 26.8555 103.641 27.1875C103.465 27.513 103.338 27.8809 103.26 28.291C103.189 28.6947 103.153 29.1146 103.153 29.5508V29.8926C103.153 30.3288 103.189 30.752 103.26 31.1621C103.332 31.5723 103.455 31.9401 103.631 32.2656C103.814 32.5846 104.061 32.8418 104.373 33.0371C104.686 33.2259 105.083 33.3203 105.565 33.3203ZM114.367 20V35H112.004V20H114.367ZM121.754 35.1953C120.972 35.1953 120.266 35.0684 119.634 34.8145C119.009 34.554 118.476 34.1927 118.033 33.7305C117.597 33.2682 117.261 32.7246 117.027 32.0996C116.793 31.4746 116.675 30.8008 116.675 30.0781V29.6875C116.675 28.8607 116.796 28.112 117.037 27.4414C117.278 26.7708 117.613 26.1979 118.043 25.7227C118.472 25.2409 118.98 24.873 119.566 24.6191C120.152 24.3652 120.787 24.2383 121.47 24.2383C122.226 24.2383 122.886 24.3652 123.453 24.6191C124.019 24.873 124.488 25.2311 124.859 25.6934C125.237 26.1491 125.517 26.6927 125.699 27.3242C125.888 27.9557 125.982 28.6523 125.982 29.4141V30.4199H117.818V28.7305H123.658V28.5449C123.645 28.1217 123.56 27.7246 123.404 27.3535C123.254 26.9824 123.023 26.6829 122.711 26.4551C122.398 26.2272 121.981 26.1133 121.461 26.1133C121.07 26.1133 120.722 26.1979 120.416 26.3672C120.116 26.5299 119.865 26.7676 119.664 27.0801C119.462 27.3926 119.306 27.7702 119.195 28.2129C119.091 28.6491 119.039 29.1406 119.039 29.6875V30.0781C119.039 30.5404 119.101 30.9701 119.224 31.3672C119.354 31.7578 119.543 32.0996 119.791 32.3926C120.038 32.6855 120.338 32.9167 120.689 33.0859C121.041 33.2487 121.441 33.3301 121.89 33.3301C122.457 33.3301 122.961 33.2161 123.404 32.9883C123.847 32.7604 124.231 32.4382 124.556 32.0215L125.796 33.2227C125.569 33.5547 125.272 33.8737 124.908 34.1797C124.543 34.4792 124.097 34.7233 123.57 34.9121C123.049 35.1009 122.444 35.1953 121.754 35.1953ZM130.82 20.7812V35H128.368V20.7812H130.82ZM139.573 20.7812V35H137.141V20.7812H139.573ZM144.036 20.7812V22.7344H132.718V20.7812H144.036Z" fill="#506037"/>
</svg>
