<svg width="32" height="32" viewBox="0 0 32 32" fill="none" xmlns="http://www.w3.org/2000/svg">
<path d="M25.589 0.552045C24.4715 0.00354521 18.807 0.630045 14.721 4.54805C8.28598 10.975 8.44049 19.439 8.44049 19.439C8.44049 19.439 8.22848 20.3105 7.32148 19.047C5.33748 16.5195 6.37698 10.7025 6.49298 9.89155C6.65698 8.75105 5.92948 8.71604 5.62598 9.09404C-1.54152 19.0465 4.93198 27.197 9.17148 29.784C14.1335 32.8115 23.924 32.8105 27.8245 24.22C32.68 13.5215 26.9885 1.23855 25.589 0.552045V0.552045Z" fill="#82B23F"/>
<path d="M25.4775 9.99154C25.975 6.65504 25.978 3.44104 25.569 0.545043C24.414 0.0110434 18.7865 0.649043 14.721 4.54804C8.286 10.975 8.44051 19.439 8.44051 19.439C8.44051 19.439 8.2285 20.3105 7.3215 19.047C5.3375 16.5195 6.377 10.7025 6.493 9.89154C6.657 8.75104 5.9295 8.71604 5.626 9.09404C1.29401 15.109 1.94751 20.463 4.07601 24.3315C6.20651 26.619 8.631 28.1225 10.8765 28.4575C17.2765 29.4125 23.8125 21.145 25.4775 9.99154V9.99154Z" fill="#B3E856"/>
<path d="M25.4775 9.99159C25.975 6.65509 25.978 3.44109 25.569 0.545086C24.414 0.0110858 19.9315 1.86609 15.8655 5.76609C9.43055 12.1926 8.44055 19.4391 8.44055 19.4391C8.44055 19.4391 8.22854 20.3106 7.32154 19.0471C5.33754 16.5196 6.01954 12.1531 6.13604 11.3426C6.30054 10.2016 5.57254 10.1671 5.26904 10.5451C0.937545 16.5601 1.94805 20.4636 4.07704 24.3316C6.20755 26.6191 8.63204 28.1226 10.8775 28.4576C17.2765 29.4126 23.8125 21.1451 25.4775 9.99159V9.99159Z" fill="#98D13F"/>
</svg>
