<svg width="19" height="19" viewBox="0 0 19 19" fill="none" xmlns="http://www.w3.org/2000/svg">
<path d="M17.6276 12.8415L16.0464 11.2603C15.575 10.7927 14.9388 10.5291 14.2749 10.5262C13.6109 10.5234 12.9725 10.7816 12.4972 11.2452C12.2436 11.5002 11.909 11.6589 11.551 11.694C11.193 11.729 10.834 11.6382 10.5357 11.4371C9.35855 10.6515 8.34727 9.64213 7.55937 8.46648C7.36183 8.16491 7.27428 7.80446 7.31146 7.44587C7.34864 7.08728 7.50829 6.75246 7.7635 6.49783C8.22285 6.02206 8.47771 5.38539 8.47355 4.72408C8.46938 4.06277 8.20652 3.42936 7.74122 2.95942L6.15997 1.37817C5.68656 0.906388 5.04546 0.641479 4.37711 0.641479C3.70876 0.641479 3.06765 0.906388 2.59425 1.37817L2.13928 1.83386C-0.232597 4.20573 -0.0550661 9.19242 4.87987 14.1245C7.8555 17.1008 10.8505 18.3471 13.2792 18.3471C13.9941 18.3709 14.7066 18.2522 15.3752 17.9979C16.0438 17.7436 16.655 17.3587 17.1734 16.8658L17.6291 16.4101C18.1017 15.9365 18.367 15.2946 18.3668 14.6255C18.3665 13.9564 18.1006 13.3148 17.6276 12.8415ZM16.6113 15.3938L16.1556 15.8495C14.2869 17.7182 10.162 17.3768 5.89475 13.1089C1.62753 8.84095 1.2854 4.71317 3.15415 2.84442L3.60625 2.38945C3.8098 2.18663 4.08544 2.07275 4.37279 2.07275C4.66014 2.07275 4.93578 2.18663 5.13934 2.38945L6.72059 3.9707C6.92045 4.17156 7.03389 4.44257 7.03671 4.72591C7.03953 5.00925 6.9315 5.28247 6.73568 5.48726C6.25001 5.97604 5.94705 6.61687 5.87757 7.3024C5.80809 7.98793 5.9763 8.67651 6.35403 9.2528C7.24926 10.5925 8.40049 11.742 9.7415 12.6352C10.3161 13.013 11.0028 13.1822 11.6871 13.1146C12.3714 13.047 13.0118 12.7466 13.5013 12.2636C13.7057 12.0655 13.9797 11.9555 14.2643 11.9572C14.549 11.959 14.8216 12.0723 15.0236 12.273L16.6048 13.8542C16.7068 13.9547 16.7878 14.0743 16.8433 14.2061C16.8988 14.338 16.9277 14.4796 16.9283 14.6227C16.9289 14.7658 16.9012 14.9075 16.8468 15.0399C16.7924 15.1722 16.7124 15.2925 16.6113 15.3938Z" fill="black" fill-opacity="0.54"/>
</svg>
